<?xml version="1.0" standalone="no"?><!DOCTYPE svg PUBLIC "-//W3C//DTD SVG 1.1//EN" "http://www.w3.org/Graphics/SVG/1.1/DTD/svg11.dtd" ><svg xmlns="http://www.w3.org/2000/svg"><metadata></metadata><defs><font id="FontForge 2.0 : cybericons : 28-3-2016" horiz-adv-x="1024"><font-face font-family="cybericons" font-weight="400" font-stretch="normal" units-per-em="1024" panose-1="0 0 0 0 0 0 0 0 0 0" ascent="960" descent="-64" x-height="0" bbox="-9 -60 1045 939" underline-thickness="0" underline-position="0" unicode-range="U+0000-fffd" /><missing-glyph horiz-adv-x="1024"  /><glyph glyph-name=".null" unicode="" d="M0 0 L0 0 L0 0 L0 0 Z" /><glyph glyph-name="nonmarkingreturn" unicode="" d="" /><glyph glyph-name=".null" unicode="" d="M0 0 L0 0 L0 0 L0 0 Z" /><glyph glyph-name="space" unicode=" " d="M0 0 L0 0 L0 0 L0 0 Z" /><glyph glyph-name="multiply" unicode="×" d="M814 164 L753 104 L512 345 L271 104 L210 164 L452 405 L210 647 L271 707 L512 466 L753 707 L814 647 L572 405 L814 164 Z" /><glyph glyph-name="equivalence" unicode="&#x2261;" d="M130 427 L894 427 L894 346 L130 346 L130 427 L130 427 ZM130 725 L894 725 L894 645 L130 645 L130 725 L130 725 ZM130 128 L894 128 L894 47 L130 47 L130 128 L130 128 Z" /><glyph glyph-name="uniE900" unicode="&#xe900;" d="M555 256 L469 256 Q385 256 342 323 Q299 390 299 469 L299 597 Q299 692 346.5 751.5 Q394 811 469 811 L555 811 Q639 811 682 744 Q725 677 725 597 L725 469 Q725 390 682 323 Q639 256 555 256 ZM469 725 Q425 725 404.5 684.5 Q384 644 384 597 L384 469 Q384 436 401.5 388.5 Q419 341 469 341 L555 341 Q605 341 622.5 388.5 Q640 436 640 469 L640 597 Q640 631 622.5 678 Q605 725 555 725 L469 725 L469 725 ZM896 0 L128 0 Q110 0 97.5 12.5 Q85 25 85 43 Q85 117 104 173 Q123 229 160.5 266.5 Q198 304 254 322.5 Q310 341 384 341 L640 341 Q714 341 770 322.5 Q826 304 863.5 266.5 Q901 229 920 173 Q939 117 939 43 Q939 25 926.5 12.5 Q914 0 896 0 L896 0 ZM173 85 L851 85 Q842 175 791.5 215.5 Q741 256 640 256 L384 256 Q283 256 232 215.5 Q181 175 173 85 Z" /><glyph glyph-name="uniE901" unicode="&#xe901;" d="M320 427 L894 427 L894 346 L320 346 L320 427 L320 427 ZM320 725 L894 725 L894 645 L320 645 L320 725 L320 725 ZM320 128 L894 128 L894 47 L320 47 L320 128 L320 128 ZM125.5 638.5 Q107 657 107 684 Q107 711 125.5 729.5 Q144 748 170.5 748 Q197 748 216 729.5 Q235 711 235 684 Q235 657 216 638.5 Q197 620 170.5 620 Q144 620 125.5 638.5 ZM125.5 342.5 Q107 361 107 388 Q107 415 125.5 433.5 Q144 452 170.5 452 Q197 452 216 433.5 Q235 415 235 388 Q235 361 216 342.5 Q197 324 170.5 324 Q144 324 125.5 342.5 ZM125.5 46.5 Q107 65 107 92 Q107 119 125.5 137.5 Q144 156 170.5 156 Q197 156 216 137.5 Q235 119 235 92 Q235 65 216 46.5 Q197 28 170.5 28 Q144 28 125.5 46.5 Z" /><glyph glyph-name="uniE902" unicode="&#xe902;" d="M856 849 Q877 859 897 846.5 Q917 834 917 811 L917 187 Q917 160 894 148 L510 -44 Q509 -44 508.5 -44 Q508 -44 508 -44 Q499 -48 491 -48 L491 -48 L491 -48 Q483 -48 473 -44 Q472 -44 472 -44 L88 148 Q64 160 64 187 L64 811 Q64 834 84 846.5 Q104 859 126 849 L491 666 L856 849 ZM448 64 L448 592 L149 742 L149 213 L448 64 ZM832 213 L832 742 L533 592 L533 64 L832 213 Z" /><glyph glyph-name="uniE903" unicode="&#xe903;" d="M981 384 L981 469 L881 469 Q874 522 854 569.5 Q834 617 803 657 L885 739 L824 799 L742 717 Q703 749 655 769 Q607 789 555 795 L555 896 L469 896 L469 795 Q417 789 369 769 Q321 749 282 717 L200 799 L139 739 L221 657 Q190 617 170 569.5 Q150 522 143 469 L43 469 L43 384 L143 384 Q150 331 170 283.5 Q190 236 221 196 L139 114 L200 54 L282 136 Q321 105 369 84.5 Q417 64 469 58 L469 -43 L555 -43 L555 58 Q607 64 655 84.5 Q703 105 742 136 L824 54 L885 114 L803 196 Q834 236 854 283.5 Q874 331 881 384 L981 384 ZM512 141 Q453 141 401 163.5 Q349 186 310 224.5 Q271 263 248.5 315.5 Q226 368 226 427 Q226 486 248.5 538 Q271 590 310 629 Q349 668 401 690.5 Q453 713 512 713 Q571 713 623 690.5 Q675 668 714 629 Q753 590 775.5 538 Q798 486 798 427 Q798 368 775.5 315.5 Q753 263 714 224.5 Q675 186 623 163.5 Q571 141 512 141 L512 141 Z" /><glyph glyph-name="uniE904" unicode="&#xe904;" d="M833 533 L918 619 L918 64 Q918 46 905.5 33.5 Q893 21 875 21 L150 21 Q132 21 119.5 33.5 Q107 46 107 64 L107 789 Q107 807 119.5 819.5 Q132 832 150 832 L705 832 L619 747 L193 747 L193 107 L833 107 L833 533 ZM278 192 L338 313 L888 862 L948 802 L399 252 L278 192 Z" /><glyph glyph-name="uniE905" unicode="&#xe905;" d="M1016 467 Q1033 442 1016 418 Q1011 410 1002 398.5 Q993 387 966.5 358 Q940 329 910.5 302.5 Q881 276 836 245 Q791 214 744 191.5 Q697 169 635.5 153.5 Q574 138 512 138 Q450 138 388.5 153.5 Q327 169 280 191.5 Q233 214 188 245 Q143 276 113.5 302.5 Q84 329 57.5 358 Q31 387 22 398.5 Q13 410 8 418 Q-9 442 8 467 Q13 475 22 486.5 Q31 498 57.5 527 Q84 556 113.5 582 Q143 608 188 639.5 Q233 671 280 693.5 Q327 716 388.5 731.5 Q450 747 512 747 Q574 747 635.5 731.5 Q697 716 744 693.5 Q791 671 836 639.5 Q881 608 910.5 582 Q940 556 966.5 527 Q993 498 1002 486.5 Q1011 475 1016 467 ZM690 623 Q602 661 512 661 Q422 661 334 624 Q320 588 320 555 Q320 475 376.5 419 Q433 363 512 363 Q591 363 647.5 419 Q704 475 704 555 Q704 587 690 623 ZM512 223 Q572 223 631.5 240.5 Q691 258 734.5 282 Q778 306 819.5 339 Q861 372 884 395.5 Q907 419 927 442 Q866 515 789 568 Q789 568 789 562.5 Q789 557 789 555 Q789 440 708 358.5 Q627 277 512 277 Q397 277 316 358.5 Q235 440 235 555 Q235 557 235 562 Q235 567 235 569 Q158 515 97 442 Q117 419 140 395.5 Q163 372 205 339 Q247 306 290.5 282 Q334 258 393 240.5 Q452 223 512 223 Z" /><glyph glyph-name="uniE906" unicode="&#xe906;" d="M853 448 L853 363 L555 363 L555 64 L469 64 L469 363 L171 363 L171 448 L469 448 L469 747 L555 747 L555 448 L853 448 Z" /><glyph glyph-name="uniE907" unicode="&#xe907;" d="M435 140 Q423 127 405.5 127 Q388 127 375 140 L119 396 Q106 409 106 426.5 Q106 444 118.5 456.5 Q131 469 149 469 Q167 469 179 456 L405 230 L888 713 Q901 725 918.5 725 Q936 725 948.5 712.5 Q961 700 961 682.5 Q961 665 948 653 L435 140 Z" /><glyph glyph-name="uniE908" unicode="&#xe908;" d="M338 821.5 Q421 857 512 857 Q603 857 686 821.5 Q769 786 829 726 Q889 666 924.5 583 Q960 500 960 409 Q960 318 924.5 235 Q889 152 829 92 Q769 32 686 -3.5 Q603 -39 512 -39 Q421 -39 338 -3.5 Q255 32 195 92 Q135 152 99.5 235 Q64 318 64 409 Q64 500 99.5 583 Q135 666 195 726 Q255 786 338 821.5 ZM872 451 Q860 557 792.5 638.5 Q725 720 626 753 Q660 693 683 614 Q706 535 711 451 L872 451 ZM512 47 Q542 67 580 158 Q618 249 626 366 L398 366 Q406 249 444 158 Q482 67 512 47 ZM399 451 L625 451 Q618 560 581 650 Q544 740 512 767 Q480 740 443 650 Q406 560 399 451 ZM398 753 Q299 720 232 638 Q164 556 152 451 L313 451 Q318 535 341 613 Q365 694 398 753 ZM152 366 Q164 263 229.5 182 Q295 101 392 67 Q323 195 313 366 L152 366 ZM632 67 Q729 101 794.5 182 Q860 263 872 366 L711 366 Q701 194 632 67 Z" /><glyph glyph-name="uniE909" unicode="&#xe909;" d="M875 543 Q892 543 904.5 530.5 Q917 518 917 500 L917 201 Q917 95 842 20 Q767 -55 661 -55 L320 -55 Q214 -55 139 20 Q64 95 64 201 L64 500 Q64 518 76 530 Q89 543 107 543 L661 543 L661 701 Q661 724 647 742 Q634 760 611 769 Q589 778 567 782 Q546 786 524 786 L454 786 Q433 786 412 782 Q390 778 369 769 Q347 760 334 742 Q320 724 320 701 L320 658 L235 658 L235 701 Q235 776 296 824 Q357 871 454 871 L524 871 Q622 871 685 824 Q747 776 747 701 L747 543 L875 543 ZM832 201 L832 457 L149 457 L149 201 Q149 131 199 81 Q249 31 320 31 L661 31 Q732 31 782 81 Q832 131 832 201 ZM448 261 Q427 280 427 308 Q427 334 445 353 Q464 372 491 372 Q517 372 536 353 Q555 334 555 308 Q555 280 533 261 L533 159 L448 159 L448 261 Z" /><glyph glyph-name="uniE90A" unicode="&#xe90a;" d="M320 299 L320 427 L405 427 L405 299 L320 299 ZM491 299 L491 512 L576 512 L576 299 L491 299 ZM661 299 L661 597 L747 597 L747 299 L661 299 ZM875 128 L192 128 Q157 128 132 153 Q107 178 107 213 L107 683 Q107 718 132 743 Q157 768 192 768 L875 768 Q910 768 935 743 Q960 718 960 683 L960 213 Q960 178 935 153 Q910 128 875 128 ZM875 213 L875 171 L875 213 L875 213 ZM192 683 L192 213 L875 213 L875 683 L192 683 ZM21 -43 L21 43 L1045 43 L1045 -43 L21 -43 Z" /><glyph glyph-name="uniE90B" unicode="&#xe90b;" d="M631 527 Q612 546 612 572.5 Q612 599 631 617.5 Q650 636 676.5 636 Q703 636 721.5 617.5 Q740 599 740 572.5 Q740 546 721.5 527 Q703 508 676.5 508 Q650 508 631 527 ZM321 13 L98 13 L9 154 L325 453 Q316 490 316 528 Q316 616 359.5 691 Q403 766 478 809.5 Q553 853 641 853 Q729 853 804 809.5 Q879 766 923 691 Q967 616 967 528 Q967 440 923 365 Q879 290 804 246.5 Q729 203 641 203 Q589 203 540 219 L477 160 L405 160 L405 93 L321 13 ZM145 99 L287 99 L320 129 L320 245 L443 245 L521 319 L547 308 Q592 288 641 288 Q740 288 810.5 358.5 Q881 429 881 528 Q881 627 810.5 697.5 Q740 768 641 768 Q542 768 471.5 697.5 Q401 627 401 528 Q401 490 413 453 L422 427 L119 140 L145 99 Z" /><glyph glyph-name="uniE90C" unicode="&#xe90c;" d="M875 597 Q910 597 935 572 Q960 547 960 512 L960 43 Q960 7 935 -18 Q910 -43 875 -43 L107 -43 Q71 -43 46 -18 Q21 7 21 43 L21 512 Q21 547 46 572 Q71 597 107 597 L875 597 ZM107 512 L107 384 Q107 352 158.5 325.5 Q210 299 277 299 L704 299 Q771 299 822.5 325 Q874 351 875 384 L875 512 L107 512 ZM107 43 L875 43 L875 260 Q799 213 704 213 L551 213 Q544 194 527.5 182.5 Q511 171 490.5 171 Q470 171 453.5 182.5 Q437 194 431 213 L277 213 Q182 213 107 260 L107 43 ZM363 725 L363 640 L277 640 L277 768 Q277 786 289.5 798.5 Q302 811 320 811 L661 811 Q679 811 691.5 798.5 Q704 786 704 768 L704 640 L619 640 L619 725 L363 725 Z" /><glyph glyph-name="uniE90D" unicode="&#xe90d;" d="M832 768 Q867 768 892 743 Q917 718 917 683 L917 43 Q917 7 892 -18 Q867 -43 832 -43 L149 -43 Q114 -43 89 -18 Q64 7 64 43 L64 683 Q64 718 89 743 Q114 768 149 768 L363 768 L363 683 L149 683 L149 43 L832 43 L832 683 L619 683 L619 768 L832 768 ZM307 457 L448 316 L448 768 L533 768 L533 316 L674 457 Q686 469 704 469 Q722 469 734.5 456.5 Q747 444 747 426.5 Q747 409 734 397 L521 183 Q508 171 490.5 171 Q473 171 461 183 L247 397 Q235 409 235 426.5 Q235 444 247.5 456.5 Q260 469 277.5 469 Q295 469 307 457 Z" /><glyph glyph-name="uniE90E" unicode="&#xe90e;" d="M597 128 L597 384 L683 384 L683 128 L597 128 ZM811 128 L811 384 L896 384 L896 128 L811 128 ZM384 128 L384 384 L469 384 L469 128 L384 128 ZM171 128 L171 384 L256 384 L256 128 L171 128 ZM128 469 Q114 469 102.5 477.5 Q91 486 87 500 Q83 514 88 527 Q93 540 105 548 L510 807 Q533 821 556 807 L962 548 Q974 540 979 527 Q984 514 980 500 Q976 486 964.5 477.5 Q953 469 939 469 L128 469 ZM533 720 L274 555 L792 555 L533 720 ZM960 43 L1045 -43 L21 -43 L107 43 L960 43 Z" /><glyph glyph-name="uniE90F" unicode="&#xe90f;" d="M174 512 L84 512 L64 512 L64 766 L168 662 Q228 732 312 771.5 Q396 811 491 811 Q606 811 704.5 753.5 Q803 696 860 598 Q917 500 917 384 L832 384 Q832 477 786.5 555.5 Q741 634 662 679.5 Q583 725 491 725 Q413 725 345 692 Q277 659 229 602 L318 512 L174 512 ZM807 256 L898 256 L916 256 L916 2 L813 105 Q753 36 669 -3.5 Q585 -43 491 -43 Q375 -43 276.5 14.5 Q178 72 121 170 Q64 268 64 384 L149 384 Q149 291 195 212.5 Q241 134 319.5 88.5 Q398 43 491 43 Q568 43 636 75.5 Q704 108 752 165 L661 256 L807 256 Z" /><glyph glyph-name="uniE910" unicode="&#xe910;" d="M909 683 Q944 683 969 658 Q994 633 994 597 L994 85 Q994 50 969 25 Q944 0 909 0 L141 0 Q105 0 80 25 Q55 50 55 85 L55 597 Q55 633 80 658 Q105 683 141 683 L909 683 ZM844 597 L205 597 L525 313 L844 597 ZM141 85 L909 85 L909 540 L553 224 Q541 213 524.5 213 Q508 213 496 224 L141 540 L141 85 Z" /><glyph glyph-name="uniE911" unicode="&#xe911;" d="M277 427 L277 512 L704 512 L704 427 L277 427 ZM277 256 L277 341 L491 341 L491 256 L277 256 ZM789 811 Q825 811 850 786 Q875 761 875 725 L875 43 Q875 7 850 -18 Q825 -43 789 -43 L192 -43 Q157 -43 132 -18 Q107 7 107 43 L107 725 Q107 761 132 786 Q157 811 192 811 L277 811 L277 725 L192 725 L192 43 L789 43 L789 725 L704 725 L704 811 L789 811 ZM363 640 Q345 640 332.5 652.5 Q320 665 320 683 L320 768 Q320 839 370 889 Q420 939 490.5 939 Q561 939 611 889 Q661 839 661 768 L661 683 Q661 665 648.5 652.5 Q636 640 619 640 L363 640 ZM405 768 L405 725 L576 725 L576 768 Q576 803 551 828 Q526 853 490.5 853 Q455 853 430 828 Q405 803 405 768 Z" /><glyph glyph-name="uniE912" unicode="&#xe912;" d="M875 0 L149 0 Q114 0 89 25 Q64 50 64 85 L64 683 Q64 718 89 743 Q114 768 149 768 L404 768 Q418 768 429 760 L593 640 L875 640 Q910 640 935 615 Q960 590 960 555 L960 85 Q960 50 935 25 Q910 0 875 0 ZM875 85 L875 43 L875 85 L875 85 ZM149 683 L149 85 L875 85 L875 555 L579 555 Q565 555 553 563 L390 683 L149 683 Z" /><glyph glyph-name="uniE913" unicode="&#xe913;" d="M405 774 L405 688 L320 688 L320 816 Q320 834 332.5 846.5 Q345 859 363 859 L619 859 Q636 859 648.5 846.5 Q661 834 661 816 L661 688 L576 688 L576 774 L405 774 ZM875 646 Q892 646 904.5 633.5 Q917 621 917 603 Q917 585 904.5 572.5 Q892 560 875 560 L832 560 L832 48 Q832 13 807 -12 Q782 -37 747 -37 L235 -37 Q199 -37 174 -12 Q149 13 149 48 L149 560 L107 560 Q89 560 76.5 572.5 Q64 585 64 603 Q64 621 76.5 633.5 Q89 646 107 646 L875 646 ZM747 48 L747 560 L235 560 L235 48 L747 48 ZM435.5 146.5 Q423 134 405.5 134 Q388 134 375.5 146.5 Q363 159 363 176 L363 432 Q363 450 375.5 462.5 Q388 475 405.5 475 Q423 475 435.5 462.5 Q448 450 448 432 L448 176 Q448 159 435.5 146.5 ZM606.5 146.5 Q594 134 576 134 Q558 134 545.5 146.5 Q533 159 533 176 L533 432 Q533 450 545.5 462.5 Q558 475 576 475 Q594 475 606.5 462.5 Q619 450 619 432 L619 176 Q619 159 606.5 146.5 Z" /><glyph glyph-name="uniE914" unicode="&#xe914;" d="M892 0 L832 -60 L687 84 Q582 0 448 0 Q344 0 255.5 51.5 Q167 103 115.5 191.5 Q64 280 64 384 Q64 488 115.5 576.5 Q167 665 255.5 716.5 Q344 768 448 768 Q552 768 640.5 716.5 Q729 665 780.5 576.5 Q832 488 832 384 Q832 250 748 145 L892 0 ZM237 595 Q149 507 149 383.5 Q149 260 236.5 172.5 Q324 85 448 85 Q572 85 659.5 172.5 Q747 260 747 383.5 Q747 507 659 595 Q571 683 448 683 Q325 683 237 595 Z" /><glyph glyph-name="uniE916" unicode="&#xe916;" d="M867 766 Q866 759 866 755 L630 -6 Q621 -32 593 -35 Q591 -35 589 -35 Q564 -35 552 -14 L368 311 L43 495 Q19 509 22 536.5 Q25 564 51 573 L812 809 Q833 815 850.5 801.5 Q868 788 867 766 ZM673 676 L171 521 L392 396 L673 676 ZM577 114 L733 616 L453 336 L577 114 Z" /><glyph glyph-name="uniE917" unicode="&#xe917;" d="M875 0 L107 0 Q64 0 45.5 32.5 Q27 65 49 101 L432 753 Q453 787 491 787 Q529 787 549 753 L933 101 Q954 64 935.5 32 Q917 0 875 0 ZM139 85 L843 85 L491 684 L139 85 ZM520.5 311.5 Q508 299 490.5 299 Q473 299 460.5 311.5 Q448 324 448 341 L448 512 Q448 530 460.5 542.5 Q473 555 490.5 555 Q508 555 520.5 542.5 Q533 530 533 512 L533 341 Q533 324 520.5 311.5 ZM445.5 146.5 Q427 165 427 192 Q427 219 445.5 237.5 Q464 256 490.5 256 Q517 256 536 237.5 Q555 219 555 192 Q555 165 536 146.5 Q517 128 490.5 128 Q464 128 445.5 146.5 Z" /></font>
</defs>
</svg>
