<svg xmlns="http://www.w3.org/2000/svg" width="113" height="81" viewBox="9.25 88 113 81" enable-background="new 9.25 88 113 81"><filter id="a"><feGaussianBlur stdDeviation="2"/></filter><path fill="#020202" d="M65.878 166c-29.394 0-53.307-15.48-53.307-34.5S36.485 97 65.88 97c29.392 0 53.306 15.477 53.306 34.5S95.27 166 65.878 166z" opacity=".25" filter="url(#a)" enable-background="new"/><path fill="#FFF" d="M65.628 161c-29.433 0-53.378-15.48-53.378-34.5S36.195 92 65.628 92s53.377 15.477 53.377 34.5S95.06 161 65.628 161z"/><path fill="#00529C" d="M65.628 94c-28.33 0-51.378 14.58-51.378 32.5S37.297 159 65.628 159c28.332 0 51.377-14.58 51.377-32.5S93.96 94 65.628 94z"/><g fill="#FFF"><path d="M41.64 126.794l-1.005 4.73c-.235 1.07-.57 3.485-3.724 3.485h-2.28c-1.24 0-2.414.1-2.414-1.71 0-.637.068-1.14.2-1.81l3.522-16.502c.302-1.476.705-3.454 3.69-3.454h2.28c.937 0 2.48 0 2.48 1.678 0 .568-.1 1.07-.234 1.743l-.87 4.09h-3.32l.97-4.594c.103-.502-.4-.77-.67-.77-.3 0-.838.402-.905.77l-3.757 17.676c-.102.436.235.738.604.738.37 0 .872-.338.973-.738l1.14-5.333h3.32zM48.45 137.66c-.235 1.072-.738 3.455-3.39 3.455h-1.71c-.77 0-2.08-.068-2.08-1.342 0-.504 0-.94.103-1.543l.17-.875h2.815l-.303 1.512c-.066.27.1.568.604.568.636 0 .703-.4.737-.568l1.04-5.03c-.605.638-1.544 1.173-2.55 1.173-.84 0-1.375-.57-1.375-1.408 0-.502.034-.973.135-1.51l3.386-15.862h2.818l-3.42 16.13c-.1.438.303.637.57.637.638 0 .737-.47.77-.637l3.422-16.13h2.817l-4.56 21.43zM58.01 116.968c1.04-.704 1.813-.938 2.348-.938.84 0 1.645.167 1.645 1.174 0 .535-.068.973-.202 1.576l-2.916 13.646c-.202.94-.77 2.785-2.65 2.785-.368 0-1.072-.134-1.878-.972l-.167.77h-2.82l4.996-23.474h2.817l-1.172 5.434zm-3.22 15.26c-.1.4.27.638.537.638.672 0 .77-.506.805-.64l2.783-13.212c.034-.168.17-.636-.536-.636-.336 0-.74.367-.806.636l-2.784 13.213zM69.08 128.438l-.807 3.79c-.57 2.68-2.348 2.782-3.286 2.782h-1.745c-.938 0-2.078 0-2.078-1.408 0-.436 0-.838.1-1.34l2.818-13.248c.402-1.844 1.608-2.784 3.152-2.784h1.744c1.743 0 2.447 1.24 2.113 2.75l-1.61 7.58h-4.158l-1.274 5.866c-.067.27.1.57.504.57.368 0 .77-.2.838-.57l.87-3.988h2.82zm-2.048-3.756l1.275-5.87c.067-.368-.236-.57-.638-.57-.437 0-.672.37-.706.57l-1.274 5.87h1.342zM70.02 135.01l3.99-18.78h2.82l-.172.772c1.142-.67 1.78-.973 2.718-.973.94 0 1.31.535 1.31 1.375 0 .368-.1.702-.168 1.072l-.872 4.124H76.83l.736-3.554c.102-.47-.268-.67-.5-.67-.205 0-.742.2-.84.67l-3.39 15.963h-2.817zM84.098 111.535h6.775l-.47 2.246H86.95l-1.743 8.084h3.052l-.47 2.247h-3.05l-2.316 10.9H79.1l4.998-23.475zM94.132 113.78h-2.515l.468-2.245h8.353l-.47 2.246h-2.516l-4.527 21.23h-3.32l4.527-21.23z"/></g></svg>