<svg xmlns="http://www.w3.org/2000/svg" width="103" height="65" viewBox="0 0 103 65"><path fill="#00529C" d="M51.378 0C23.048 0 0 14.58 0 32.5S23.047 65 51.378 65c28.332 0 51.377-14.58 51.377-32.5S79.71 0 51.378 0z"/><g fill="#FFF"><path d="M27.39 32.794l-1.005 4.73c-.235 1.07-.57 3.485-3.724 3.485h-2.28c-1.24 0-2.414.1-2.414-1.71 0-.638.068-1.142.2-1.813l3.522-16.5c.302-1.477.705-3.454 3.69-3.454h2.28c.937 0 2.48 0 2.48 1.678 0 .568-.1 1.072-.234 1.744l-.87 4.09h-3.32l.97-4.594c.103-.504-.4-.77-.67-.77-.3 0-.838.4-.905.77l-3.757 17.675c-.102.437.235.737.604.737s.872-.338.973-.737l1.14-5.333 3.32.002zM34.2 43.66c-.235 1.072-.738 3.455-3.39 3.455H29.1c-.77 0-2.08-.068-2.08-1.342 0-.504 0-.94.103-1.543l.17-.875h2.815l-.303 1.512c-.066.27.1.568.604.568.636 0 .703-.4.737-.568l1.04-5.03c-.605.638-1.544 1.173-2.55 1.173-.84 0-1.375-.57-1.375-1.408 0-.502.034-.973.135-1.51l3.386-15.86H34.6l-3.42 16.127c-.1.437.303.637.57.637.638 0 .737-.47.77-.638l3.422-16.13h2.817L34.2 43.66zM43.76 22.97c1.04-.706 1.814-.94 2.348-.94.84 0 1.646.168 1.646 1.175 0 .534-.067.974-.202 1.575l-2.917 13.646c-.202.94-.77 2.785-2.65 2.785-.368 0-1.072-.134-1.878-.972l-.167.77h-2.82l4.996-23.474h2.817L43.76 22.97zm-3.22 15.257c-.1.402.27.64.537.64.672 0 .77-.507.805-.64l2.783-13.213c.034-.168.17-.636-.536-.636-.336 0-.74.367-.806.636L40.54 38.227zM54.83 34.438l-.807 3.79c-.57 2.682-2.35 2.782-3.287 2.782h-1.744c-.938 0-2.078 0-2.078-1.408 0-.436 0-.838.102-1.34l2.816-13.248c.402-1.844 1.607-2.783 3.152-2.783h1.744c1.742 0 2.446 1.24 2.112 2.75l-1.61 7.58h-4.158l-1.274 5.866c-.067.27.1.57.504.57.368 0 .77-.2.84-.57l.87-3.988h2.817zm-2.048-3.756l1.274-5.87c.067-.368-.236-.568-.638-.568-.437 0-.67.368-.705.57L51.44 30.68h1.342zM55.77 41.01l3.99-18.78h2.82l-.172.772c1.142-.67 1.78-.973 2.718-.973.94 0 1.31.534 1.31 1.374 0 .37-.1.703-.168 1.072l-.87 4.125H62.58l.736-3.555c.102-.47-.27-.67-.502-.67-.203 0-.74.2-.838.67l-3.39 15.965H55.77zM69.848 17.535h6.775l-.47 2.246H72.7l-1.743 8.083h3.052l-.47 2.248h-3.05l-2.316 10.9h-3.318l4.996-23.475zM79.882 19.78h-2.515l.468-2.245h8.353l-.47 2.246h-2.516l-4.527 21.23h-3.32l4.527-21.23z"/></g></svg>