<svg xmlns="http://www.w3.org/2000/svg" width="48" height="18" viewBox="0 0 48 18"><path fill="#FFF" d="M0 0h24v7.2H0z"/><path fill="#D52B1E" d="M0 11h24v7H0z"/><path fill="#0039A6" d="M0 6h24v6H0z"/><g><path fill="#00247D" d="M24 0h24v18H24z"/><path fill="#FFF" d="M24 17.012l12-6L31.975 9 24 12.987zM48 12.987L40.025 9 36 11.013l12 6zM24 5.013L31.975 9 36 6.988l-12-6zM48 .988l-12 6L40.025 9 48 5.013z"/><path fill="#FFF" d="M24 6v6h9v6h6v-6h9V6h-9V0h-6v6z"/><path fill="#CF142B" d="M34 0v18h4V0h-4z"/><path fill="#CF142B" d="M24 7.2h24v3.6H24zM24 16.343L32.684 12H30l-6 3zM24 4.45L27 6h3l-6-3zM48 1.66L39.316 6H42l6-3zM48 13.658L44.684 12H42l6 3z"/></g></svg>