<svg xmlns="http://www.w3.org/2000/svg" width="111.5" height="81" viewBox="0 0 111.5 81"><filter id="a"><feGaussianBlur stdDeviation="2"/></filter><path fill="#020202" d="M55.878 78C26.484 78 2.57 62.522 2.57 43.5 2.57 24.475 26.485 9 55.88 9c29.392 0 53.306 15.476 53.306 34.5 0 19.022-23.914 34.5-53.306 34.5z" opacity=".2" filter="url(#a)" enable-background="new"/><path fill="#FFF" d="M55.878 73C26.445 73 2.5 57.522 2.5 38.5 2.5 19.475 26.445 4 55.878 4s53.377 15.476 53.377 34.5c0 19.022-23.944 34.5-53.377 34.5z"/><path fill="#00529C" d="M55.878 6C27.548 6 4.5 20.58 4.5 38.5S27.547 71 55.878 71c28.332 0 51.377-14.58 51.377-32.5S84.21 6 55.878 6z"/><path fill="#FFF" d="M22.792 38.36l-1.045 4.88c-.09.368-.55.674-.888.674-.337 0-.647-.275-.555-.675l3.438-16.172c.062-.337.55-.707.83-.707.244 0 .704.246.612.708l-.892 4.202h3.04l.8-3.743c.12-.613.21-1.076.21-1.596 0-1.532-1.408-1.532-2.268-1.532h-2.087c-2.73 0-3.1 1.812-3.375 3.16L17.39 42.655c-.123.617-.185 1.075-.185 1.66 0 1.66 1.072 1.563 2.21 1.563h2.087c2.885 0 3.19-2.21 3.405-3.19l.92-4.327H22.79v-.002zm13.438-9.666h-2.576l-3.13 14.76c-.03.154-.123.584-.707.584-.245 0-.616-.184-.52-.583l3.13-14.762h-2.58L26.75 43.21c-.092.49-.125.92-.125 1.38 0 .768.492 1.288 1.258 1.288.92 0 1.78-.487 2.332-1.072l-.95 4.606c-.03.153-.092.52-.676.52-.46 0-.613-.275-.552-.52l.275-1.383h-2.58l-.15.8c-.092.55-.092.95-.092 1.412 0 1.165 1.197 1.228 1.902 1.228h1.567c2.42 0 2.884-2.18 3.096-3.164l4.174-19.612zm5.648-4.296h-2.576l-4.573 21.48h2.576l.155-.705c.738.772 1.38.894 1.718.894 1.717 0 2.242-1.69 2.425-2.55l2.668-12.493c.126-.55.185-.95.185-1.442 0-.92-.734-1.072-1.5-1.072-.493 0-1.198.213-2.152.86l1.075-4.972zm-1.472 6.843c.06-.244.43-.582.734-.582.646 0 .52.43.492.583l-2.547 12.09c-.03.125-.122.584-.738.584-.245 0-.58-.213-.488-.583l2.546-12.09zm7.947 8.622l-.797 3.655c-.062.337-.43.52-.768.52-.368 0-.52-.277-.462-.52l1.167-5.373h3.804l1.472-6.935c.307-1.382-.336-2.516-1.932-2.516h-1.596c-1.413 0-2.518.86-2.884 2.548l-2.58 12.122c-.092.46-.092.83-.092 1.226 0 1.288 1.045 1.288 1.904 1.288h1.596c.86 0 2.485-.092 3.006-2.547l.737-3.468h-2.577zm-.52-3.434l1.166-5.368c.03-.185.246-.525.645-.525.368 0 .643.187.58.525l-1.163 5.368h-1.23zm6.535 9.45l3.1-14.607c.093-.427.585-.61.77-.61.212 0 .55.183.457.61l-.675 3.256h2.58l.8-3.775c.06-.337.15-.645.15-.98 0-.77-.332-1.26-1.195-1.26-.86 0-1.443.277-2.488.89l.153-.706h-2.575l-3.652 17.184h2.575zm5.616 0h3.04l1.627-7.67h1.69c2.698 0 3.19-1.996 3.468-3.284l1.562-7.395c.125-.614.185-1.077.185-1.597 0-1.625-1.5-1.533-2.268-1.533h-4.73l-4.573 21.478zm5.095-9.634l2.09-9.882h.395c.37 0 1.01.154.8 1.104l-1.66 7.733c-.153.707-.675 1.044-1.26 1.044h-.366zm4.172 9.634h2.58l4.573-21.48h-2.58l-4.573 21.48zm7.274-12.026h2.58l.58-2.764c.063-.304.492-.554.737-.554.215 0 .583.124.492.554l-.646 3.04c-.276 1.318-1.506 1.717-2.548 2.21-1.78.858-2.147 1.963-2.27 2.547l-1.01 4.785a4.09 4.09 0 0 0-.126 1.074c0 .985.4 1.324 1.228 1.324 1.073 0 1.965-.585 2.422-1.047l-.182.86h2.575l3.19-14.944c.246-1.164-.366-2.24-1.75-2.24h-1.747c-.86 0-2.426.122-2.884 2.24l-.644 2.916zm1.81 9.387c-.12.52-.52.674-.768.674-.396 0-.52-.427-.46-.675l1.013-4.666c.156-.767.123-1.072 1.598-1.84l-1.382 6.505zm6.723-12.706h1.38l-2.702 12.74c-.55 2.673 1.382 2.603 2.21 2.603h1.688l.4-1.84h-.924c-.92 0-.766-.828-.703-1.137l2.604-12.367h1.872l.4-1.84h-1.872l.92-4.296h-2.576l-.92 4.296h-1.385l-.394 1.84zM17.16 48.3h7.77l-.344 2.267H17.16V48.3zm15.653 0h58.655v2.267h-59.17l.515-2.267zM98.487 41.56a4.75 4.75 0 0 0-4.74-4.738c-2.622 0-4.753 2.13-4.738 4.74 0 2.618 2.115 4.74 4.738 4.74 2.61-.014 4.74-2.122 4.74-4.74zm-.55 0a4.19 4.19 0 0 1-4.19 4.19c-2.32.013-4.187-1.87-4.187-4.18a4.177 4.177 0 0 1 4.173-4.2 4.2 4.2 0 0 1 4.203 4.19zm-5.96 2.47h.673v-2.236h1.718c1.086 0 .78.96.892 1.576l.11.66h.797c-.288-.454-.193-.563-.246-1.252-.08-.907-.097-.985-.633-1.33.51-.385.718-.635.688-1.306-.068-1.182-.85-1.332-1.662-1.332H91.98v5.22h-.003zm2.348-4.625c.414 0 1.058.11.96 1-.068.673-.507.797-.96.797H92.65v-1.8h1.675v.003z"/></svg>